<?xml version="1.0" standalone="no"?>
<!DOCTYPE svg PUBLIC "-//W3C//DTD SVG 20010904//EN"
 "http://www.w3.org/TR/2001/REC-SVG-20010904/DTD/svg10.dtd">
<svg version="1.0" xmlns="http://www.w3.org/2000/svg"
 width="1471.000000pt" height="1262.000000pt" viewBox="0 0 1471.000000 1262.000000"
 preserveAspectRatio="xMidYMid meet">

<g transform="translate(0.000000,1262.000000) scale(0.100000,-0.100000)"
fill="#000000" stroke="none">
<path d="M5867 11826 c-48 -17 -7 20 -442 -414 -230 -230 -374 -380 -383 -402
-13 -31 -15 -302 -13 -2220 l2 -2185 22 -45 c13 -27 36 -53 57 -65 33 -19 55
-20 440 -23 405 -3 405 -3 450 20 56 29 87 74 95 141 3 29 5 1182 3 2562 l-3
2510 -21 40 c-36 70 -134 108 -207 81z"/>
<path d="M12090 10566 c-136 -37 -186 -80 -745 -630 l-310 -304 322 -323 322
-323 203 197 c508 491 673 660 705 722 103 200 78 400 -67 545 -111 111 -281
157 -430 116z"/>
<path d="M9679 10538 c-56 -28 -119 -86 -490 -457 -248 -248 -442 -450 -464
-482 -72 -112 -75 -183 -13 -284 19 -30 611 -630 1495 -1516 805 -806 1463
-1472 1463 -1479 0 -8 -663 -678 -1474 -1489 -1605 -1608 -1526 -1523 -1526
-1639 0 -107 22 -135 460 -575 501 -506 555 -550 665 -551 107 0 8 -94 2104
1998 1245 1244 1981 1986 2047 2065 l104 124 0 67 c0 67 0 67 -64 151 -41 54
-772 791 -2048 2065 -2155 2153 -2029 2034 -2143 2034 -38 0 -69 -8 -116 -32z"/>
<path d="M4415 10386 c-16 -7 -202 -185 -412 -394 -287 -287 -385 -391 -395
-419 -11 -31 -13 -305 -13 -1503 l0 -1465 25 -44 c49 -87 41 -86 487 -89 270
-2 406 1 435 8 60 17 103 64 117 128 8 38 11 546 11 1836 0 1949 3 1851 -57
1908 -50 48 -134 62 -198 34z"/>
<path d="M13381 9235 c-125 -35 -135 -43 -709 -604 l-323 -315 323 -323 323
-323 160 158 c626 614 702 692 733 750 104 194 74 401 -79 547 -86 82 -167
117 -283 121 -61 3 -109 -1 -145 -11z"/>
<path d="M1450 6300 c-617 -6 -630 -7 -630 -52 0 -14 123 -146 373 -402 534
-545 655 -671 1497 -1546 1476 -1534 2069 -2138 2154 -2188 114 -69 188 -63
306 27 36 27 250 235 475 463 347 349 416 423 445 478 44 84 45 135 5 216 -24
50 -108 140 -525 564 -273 278 -768 784 -1100 1125 -885 908 -1268 1292 -1305
1309 -29 14 -101 16 -572 14 -296 -1 -801 -4 -1123 -8z"/>
<path d="M1505 4948 c-104 -100 -271 -254 -371 -344 -99 -89 -203 -186 -230
-216 -100 -110 -151 -250 -140 -388 10 -131 26 -166 120 -267 77 -82 91 -92
153 -113 102 -34 238 -39 323 -10 111 37 175 85 380 284 108 105 287 274 398
376 111 101 202 188 202 193 0 8 -627 661 -638 664 -4 1 -92 -80 -197 -179z"/>
<path d="M12628 4603 l-327 -328 207 -210 c114 -116 267 -276 340 -355 158
-172 231 -237 315 -277 89 -43 156 -57 251 -50 139 9 178 27 278 125 109 106
128 149 136 299 6 122 -17 210 -75 296 -21 30 -209 229 -418 441 l-380 386
-327 -327z"/>
<path d="M2840 3594 c-96 -91 -256 -238 -355 -327 -259 -232 -324 -300 -366
-382 -50 -95 -63 -158 -56 -269 8 -137 27 -179 126 -280 75 -77 91 -88 150
-107 83 -27 199 -35 274 -19 120 24 188 70 367 245 91 89 246 235 345 326 99
90 216 198 259 240 l80 76 -285 294 c-157 162 -301 311 -318 332 -18 20 -36
37 -40 37 -3 0 -85 -75 -181 -166z"/>
<path d="M11285 3260 l-328 -328 279 -288 c486 -501 470 -486 561 -531 106
-53 194 -69 299 -53 117 18 142 30 276 138 142 113 156 136 165 258 7 88 -13
159 -69 248 -24 37 -121 142 -251 271 -117 116 -301 301 -408 412 l-195 202
-329 -329z"/>
</g>
</svg>
